<svg width="122" height="121" viewBox="0 0 122 121" fill="none" xmlns="http://www.w3.org/2000/svg">
<path d="M25.3847 105.569V85.3857L49.7312 99.3128C53.4133 101.419 57.5854 102.527 61.8315 102.527C66.0777 102.527 70.2497 101.419 73.9319 99.3128L98.2784 85.3857V105.569C98.2791 105.966 98.2012 106.36 98.049 106.727C97.8968 107.095 97.6734 107.429 97.3915 107.71L97.3794 107.716L97.3672 107.734L97.3247 107.771L97.185 107.904L96.699 108.352C96.2738 108.727 95.6664 109.241 94.8706 109.852C92.6888 111.52 90.3703 113.004 87.9397 114.287C79.8998 118.532 70.9313 120.733 61.8315 120.694C52.7313 120.731 43.7627 118.528 35.7234 114.281C33.2948 112.998 30.9784 111.514 28.7985 109.846C27.9972 109.23 27.223 108.58 26.4781 107.898L26.3384 107.765C26.0414 107.48 25.8042 107.139 25.6405 106.762C25.4768 106.385 25.3898 105.979 25.3847 105.569ZM114.977 68.8632L70.9068 94.0614C68.1452 95.641 65.0162 96.4722 61.8315 96.4722C58.6469 96.4722 55.5179 95.641 52.7563 94.0614L13.2357 71.4647V99.5125C13.2357 100.315 12.9157 101.084 12.3461 101.651C11.7765 102.219 11.004 102.537 10.1985 102.537C9.39294 102.537 8.6204 102.219 8.05081 101.651C7.48122 101.084 7.16122 100.315 7.16122 99.5125V66.2435C7.16092 65.6981 7.30867 65.1628 7.58883 64.6942C7.869 64.2256 8.27115 63.8411 8.75274 63.5815L52.7563 38.4135C55.5173 36.8322 58.6466 36 61.8315 36C65.0165 36 68.1458 36.8322 70.9068 38.4135L114.977 63.6178C115.44 63.8829 115.825 64.265 116.093 64.7254C116.36 65.1859 116.501 65.7085 116.501 66.2405C116.501 66.7725 116.36 67.2951 116.093 67.7556C115.825 68.216 115.44 68.5981 114.977 68.8632Z" fill="#EC7000"/>
</svg>
