<svg width="20" height="18" viewBox="0 0 20 18" fill="none" xmlns="http://www.w3.org/2000/svg">
<path d="M9.56989 17.233C9.32423 17.233 9.10837 17.1497 8.92228 16.983C8.7362 16.817 8.64316 16.599 8.64316 16.329C8.64316 16.199 8.67161 16.0557 8.7285 15.899C8.78473 15.7417 8.86974 15.6067 8.98353 15.494L12.6804 11.811L12.1262 11.259L8.43532 14.942C8.32153 15.0553 8.19335 15.14 8.05077 15.196C7.90753 15.2527 7.76261 15.281 7.61602 15.281C7.35764 15.281 7.13843 15.1913 6.95837 15.012C6.77831 14.8327 6.68861 14.6147 6.68928 14.358C6.68928 14.204 6.72074 14.0537 6.78366 13.907C6.84725 13.7603 6.92724 13.6387 7.02363 13.542L10.7205 9.859L10.1723 9.313L6.47542 12.991C6.37502 13.091 6.25018 13.1723 6.10091 13.235C5.95097 13.2983 5.8007 13.33 5.6501 13.33C5.39574 13.33 5.17786 13.2397 4.99646 13.059C4.81439 12.8777 4.72336 12.6603 4.72336 12.407C4.72336 12.2603 4.75181 12.116 4.80871 11.974C4.8656 11.8313 4.95061 11.7037 5.06373 11.591L8.5297 8.139L7.97547 7.593L4.51552 11.045C4.41847 11.141 4.2953 11.2207 4.14603 11.284C3.99677 11.3467 3.84516 11.378 3.6912 11.378C3.41944 11.378 3.19688 11.2917 3.02351 11.119C2.85015 10.9463 2.76346 10.725 2.76346 10.455C2.76346 10.3083 2.79191 10.164 2.84881 10.022C2.9057 9.88 2.99071 9.75233 3.10384 9.639L8.06382 4.699L10.2265 6.859C10.4106 7.04233 10.6185 7.172 10.8501 7.248C11.0817 7.324 11.3166 7.362 11.5549 7.362C12.0388 7.362 12.4431 7.20333 12.7678 6.886C13.0924 6.56867 13.2547 6.16333 13.2547 5.67C13.2547 5.43667 13.2096 5.20133 13.1192 4.964C13.0288 4.72733 12.8879 4.51333 12.6965 4.322L10.0378 1.674L11.0217 0.694C11.2426 0.478 11.5094 0.308667 11.822 0.186C12.1346 0.0639999 12.4472 0.00300002 12.7597 0.00300002C13.0918 0.00300002 13.4164 0.0639999 13.7337 0.186C14.0503 0.308667 14.3204 0.481667 14.5439 0.705L18.8453 4.991C19.0561 5.20167 19.2231 5.45833 19.3463 5.761C19.4694 6.063 19.531 6.398 19.531 6.766C19.531 7.09933 19.4684 7.41433 19.3433 7.711C19.2181 8.00833 19.0521 8.26 18.8453 8.466L10.3902 16.893C10.2818 17.001 10.1546 17.0843 10.0087 17.143C9.86408 17.2023 9.71816 17.232 9.5709 17.232M1.94617 9.693L0.906982 8.658C0.622503 8.37867 0.408306 8.043 0.264393 7.651C0.12048 7.25833 0.0485229 6.875 0.0485229 6.501C0.0485229 6.10567 0.112782 5.74733 0.2413 5.426C0.369818 5.10467 0.533812 4.84433 0.733282 4.645L4.68621 0.703C4.90242 0.487667 5.14339 0.316666 5.40912 0.19C5.67352 0.0633332 5.96235 0 6.27562 0C6.61164 0 6.91954 0.0596666 7.19934 0.179C7.48047 0.297667 7.73684 0.472333 7.96844 0.703L12.1493 4.866C12.2497 4.966 12.3314 5.09033 12.3943 5.239C12.4572 5.38767 12.4887 5.52867 12.4887 5.662C12.4887 5.92867 12.4013 6.15233 12.2266 6.333C12.0512 6.51433 11.8297 6.605 11.5619 6.605C11.4113 6.605 11.2664 6.57767 11.1272 6.523C10.9886 6.46833 10.8608 6.38267 10.7436 6.266L8.05981 3.605L1.94617 9.693Z" fill="#EC7000"/>
</svg>
