<svg width="25" height="24" viewBox="0 0 25 24" fill="none" xmlns="http://www.w3.org/2000/svg">
<path fill-rule="evenodd" clip-rule="evenodd" d="M12.7991 4.29279C12.6108 4.10532 12.3555 4 12.0892 4C11.823 4 11.5677 4.10532 11.3794 4.29279L4.35105 11.2928L2.34296 13.2928C2.24706 13.385 2.17057 13.4954 2.11795 13.6174C2.06533 13.7394 2.03763 13.8706 2.03648 14.0034C2.03532 14.1362 2.06072 14.2678 2.11121 14.3907C2.16169 14.5136 2.23624 14.6253 2.33052 14.7192C2.42479 14.8131 2.53689 14.8873 2.66029 14.9376C2.78368 14.9879 2.91589 15.0132 3.04921 15.012C3.18253 15.0109 3.31428 14.9833 3.43677 14.9309C3.55927 14.8785 3.67006 14.8023 3.76268 14.7068L4.05687 14.4138V20.9998C4.05687 21.7954 4.37422 22.5585 4.9391 23.1211C5.50399 23.6837 6.27014 23.9998 7.06901 23.9998H17.1095C17.9083 23.9998 18.6745 23.6837 19.2394 23.1211C19.8043 22.5585 20.1216 21.7954 20.1216 20.9998V14.4138L20.4158 14.7068C20.6052 14.8889 20.8588 14.9897 21.122 14.9875C21.3853 14.9852 21.6371 14.88 21.8233 14.6946C22.0094 14.5092 22.115 14.2584 22.1173 13.9962C22.1196 13.734 22.0184 13.4814 21.8355 13.2928L12.7991 4.29279Z" fill="#EC7000"/>
</svg>
