<svg width="18" height="20" viewBox="0 0 18 20" fill="none" xmlns="http://www.w3.org/2000/svg">
<path fill-rule="evenodd" clip-rule="evenodd" d="M2.57453 8.57896C2.57453 7.0621 3.11681 5.60738 4.08208 4.5348C5.04735 3.46222 6.35653 2.85965 7.72163 2.85965C9.08672 2.85965 10.3959 3.46222 11.3612 4.5348C12.3264 5.60738 12.8687 7.0621 12.8687 8.57896C12.8687 10.0958 12.3264 11.5505 11.3612 12.6231C10.3959 13.6957 9.08672 14.2983 7.72163 14.2983C6.35653 14.2983 5.04735 13.6957 4.08208 12.6231C3.11681 11.5505 2.57453 10.0958 2.57453 8.57896ZM7.72163 1.6223e-07C6.50653 -0.000172136 5.30856 0.31834 4.22513 0.929632C3.14171 1.54092 2.20342 2.42773 1.4866 3.51794C0.769773 4.60814 0.294643 5.87096 0.0998527 7.20367C-0.0949379 8.53639 -0.00388926 9.90138 0.365594 11.1876C0.735076 12.4739 1.37256 13.6451 2.2262 14.6059C3.07984 15.5668 4.12552 16.2902 5.27821 16.7173C6.4309 17.1445 7.65805 17.2632 8.85984 17.064C10.0616 16.8648 11.2041 16.3532 12.1945 15.5708L15.8193 19.5986C16.062 19.8591 16.387 20.0032 16.7244 19.9999C17.0618 19.9967 17.3845 19.8463 17.6231 19.5812C17.8617 19.3161 17.997 18.9575 18 18.5826C18.0029 18.2077 17.8732 17.8465 17.6388 17.5769L14.0152 13.5505C14.8366 12.267 15.3241 10.7571 15.4244 9.18617C15.5247 7.61526 15.2339 6.04398 14.584 4.64451C13.934 3.24503 12.9498 2.07137 11.7394 1.25213C10.5289 0.432895 9.13892 -0.000306056 7.72163 1.6223e-07Z" fill="#EC7000"/>
</svg>
