<svg width="21" height="20" viewBox="0 0 21 20" fill="none" xmlns="http://www.w3.org/2000/svg">
<path d="M19.9607 3.2395L10.4993 0.0410395C10.3374 -0.0136798 10.1624 -0.0136798 10.0006 0.0410395L0.539106 3.2395C0.38211 3.29257 0.245561 3.3944 0.148805 3.53056C0.0520475 3.66672 -1.22627e-05 3.8303 2.16663e-09 3.99813V11.9943C2.16663e-09 12.2063 0.0830691 12.4097 0.230933 12.5597C0.378797 12.7096 0.579344 12.7939 0.788455 12.7939C0.997566 12.7939 1.19811 12.7096 1.34598 12.5597C1.49384 12.4097 1.57691 12.2063 1.57691 11.9943V5.1076L4.88743 6.22606C4.00787 7.66716 3.72817 9.40336 4.10976 11.0534C4.49134 12.7035 5.50301 14.1326 6.92263 15.0268C5.14861 15.7325 3.61507 17.0089 2.49349 18.754C2.43516 18.8419 2.39464 18.9407 2.37429 19.0447C2.35395 19.1486 2.35418 19.2556 2.37496 19.3595C2.39575 19.4633 2.43669 19.562 2.4954 19.6496C2.5541 19.7373 2.6294 19.8122 2.71692 19.8701C2.80444 19.928 2.90243 19.9677 3.0052 19.9868C3.10797 20.006 3.21347 20.0042 3.31557 19.9817C3.41766 19.9591 3.51431 19.9162 3.59991 19.8554C3.6855 19.7946 3.75832 19.7172 3.81415 19.6276C5.2994 17.3167 7.64505 15.9923 10.2499 15.9923C12.8548 15.9923 15.2004 17.3167 16.6857 19.6276C16.8013 19.8019 16.98 19.9231 17.183 19.9648C17.386 20.0066 17.5971 19.9657 17.7706 19.851C17.9441 19.7362 18.0661 19.5568 18.1102 19.3515C18.1543 19.1462 18.117 18.9316 18.0063 18.754C16.8848 17.0089 15.3453 15.7325 13.5772 15.0268C14.9955 14.1326 16.0062 12.7045 16.3877 11.0556C16.7692 9.40675 16.4904 7.67174 15.6124 6.23105L19.9607 4.76176C20.1177 4.70872 20.2543 4.6069 20.3511 4.47074C20.4479 4.33458 20.5 4.17098 20.5 4.00313C20.5 3.83527 20.4479 3.67168 20.3511 3.53552C20.2543 3.39936 20.1177 3.29754 19.9607 3.24449V3.2395ZM14.9806 9.59543C14.9809 10.3539 14.8037 11.1017 14.4638 11.7773C14.1239 12.4529 13.6309 13.0372 13.0252 13.4821C12.4195 13.9271 11.7184 14.2201 10.9795 14.3371C10.2405 14.4541 9.48475 14.3917 8.77417 14.1551C8.06359 13.9185 7.41844 13.5144 6.89168 12.9759C6.36491 12.4375 5.97153 11.7801 5.7438 11.0576C5.51608 10.3351 5.46051 9.56817 5.58165 8.8197C5.70279 8.07123 5.99719 7.36255 6.44069 6.7518L10.0006 7.95122C10.1624 8.00594 10.3374 8.00594 10.4993 7.95122L14.0591 6.7518C14.6581 7.5754 14.9811 8.57202 14.9806 9.59543ZM10.2499 6.35399L3.28194 3.99813L10.2499 1.64227L17.2179 3.99813L10.2499 6.35399Z" fill="#EC7000"/>
</svg>
