<svg width="21" height="20" viewBox="0 0 21 20" fill="none" xmlns="http://www.w3.org/2000/svg">
<path d="M19 15C19.5304 15 20.0391 14.7893 20.4142 14.4142C20.7893 14.0391 21 13.5304 21 13V2C21 1.46957 20.7893 0.960859 20.4142 0.585786C20.0391 0.210714 19.5304 0 19 0H8.46C8.81 0.61 9 1.3 9 2H19V13H10V15M14 5V7H8V20H6V14H4V20H2V12H0.5V7C0.5 6.46957 0.710714 5.96086 1.08579 5.58579C1.46086 5.21071 1.96957 5 2.5 5H14ZM7 2C7 2.53043 6.78929 3.03914 6.41421 3.41421C6.03914 3.78929 5.53043 4 5 4C4.46957 4 3.96086 3.78929 3.58579 3.41421C3.21071 3.03914 3 2.53043 3 2C3 1.46957 3.21071 0.960859 3.58579 0.585786C3.96086 0.210714 4.46957 0 5 0C5.53043 0 6.03914 0.210714 6.41421 0.585786C6.78929 0.960859 7 1.46957 7 2Z" fill="#EC7000"/>
</svg>
