<svg width="28" height="26" viewBox="0 0 28 26" fill="none" xmlns="http://www.w3.org/2000/svg">
<path d="M26 6H21V2C20.9995 1.46973 20.7886 0.961329 20.4136 0.586371C20.0387 0.211413 19.5303 0.000529477 19 0H9C8.46973 0.000529477 7.96133 0.211413 7.58637 0.586371C7.21141 0.961329 7.00053 1.46973 7 2V6H2C1.46973 6.00053 0.961329 6.21141 0.586371 6.58637C0.211413 6.96133 0.000529477 7.46973 0 8V24C0.000529477 24.5303 0.211413 25.0387 0.586371 25.4136C0.961329 25.7886 1.46973 25.9995 2 26H26C26.5303 25.9995 27.0387 25.7886 27.4136 25.4136C27.7886 25.0387 27.9995 24.5303 28 24V8C27.9995 7.46973 27.7886 6.96133 27.4136 6.58637C27.0387 6.21141 26.5303 6.00053 26 6ZM2 24V8H7V10H5V12H7V14H5V16H7V18H5V20H7V24H2ZM19 24H9V2H19V24ZM26 24H21V20H23V18H21V16H23V14H21V12H23V10H21V8H26V24Z" fill="#EC7000"/>
</svg>
