<svg width="23" height="12" viewBox="0 0 23 12" fill="none" xmlns="http://www.w3.org/2000/svg">
<path d="M6.06071 9C6.89742 9 7.60862 8.70833 8.19431 8.125C8.78001 7.54167 9.07285 6.83333 9.07285 6C9.07285 5.16667 8.78001 4.45833 8.19431 3.875C7.60862 3.29167 6.89742 3 6.06071 3C5.22401 3 4.51281 3.29167 3.92712 3.875C3.34142 4.45833 3.04858 5.16667 3.04858 6C3.04858 6.83333 3.34142 7.54167 3.92712 8.125C4.51281 8.70833 5.22401 9 6.06071 9ZM6.06071 12C4.3873 12 2.96491 11.4167 1.79352 10.25C0.622132 9.08333 0.036438 7.66667 0.036438 6C0.036438 4.33333 0.622132 2.91667 1.79352 1.75C2.96491 0.583333 4.3873 0 6.06071 0C7.41618 0 8.60028 0.383333 9.61303 1.15C10.6258 1.91667 11.3326 2.86667 11.7336 4H20.1425L22.1255 5.975L18.6113 9.975L16.1012 8L14.0931 10L12.085 8H11.7336C11.3152 9.2 10.5873 10.1667 9.54978 10.9C8.51226 11.6333 7.34924 12 6.06071 12Z" fill="#EC7000"/>
</svg>
