<svg width="25" height="24" viewBox="0 0 25 24" fill="none" xmlns="http://www.w3.org/2000/svg">
<path d="M17.1011 12C17.6337 12 18.1444 12.2107 18.521 12.5858C18.8976 12.9609 19.1092 13.4696 19.1092 14V20C19.1092 20.5304 18.8976 21.0391 18.521 21.4142C18.1444 21.7893 17.6337 22 17.1011 22H7.06064C6.52806 22 6.0173 21.7893 5.64071 21.4142C5.26412 21.0391 5.05255 20.5304 5.05255 20V14C5.05255 13.4696 5.26412 12.9609 5.64071 12.5858C6.0173 12.2107 6.52806 12 7.06064 12V7C7.06064 5.67392 7.58956 4.40215 8.53103 3.46447C9.47251 2.52678 10.7494 2 12.0809 2C13.4123 2 14.6892 2.52678 15.6307 3.46447C16.5722 4.40215 17.1011 5.67392 17.1011 7V12ZM12.0809 19C12.6135 19 13.1242 18.7893 13.5008 18.4142C13.8774 18.0391 14.089 17.5304 14.089 17C14.089 16.4696 13.8774 15.9609 13.5008 15.5858C13.1242 15.2107 12.6135 15 12.0809 15C11.5483 15 11.0375 15.2107 10.6609 15.5858C10.2843 15.9609 10.0728 16.4696 10.0728 17C10.0728 17.5304 10.2843 18.0391 10.6609 18.4142C11.0375 18.7893 11.5483 19 12.0809 19ZM15.093 12V7C15.093 6.60603 15.0151 6.21593 14.8637 5.85195C14.7124 5.48797 14.4905 5.15726 14.2108 4.87868C13.9311 4.6001 13.599 4.37913 13.2336 4.22836C12.8681 4.0776 12.4764 4 12.0809 4C11.6853 4 11.2936 4.0776 10.9282 4.22836C10.5627 4.37913 10.2307 4.6001 9.95097 4.87868C9.67127 5.15726 9.4494 5.48797 9.29802 5.85195C9.14665 6.21593 9.06874 6.60603 9.06874 7V12H15.093Z" fill="#EC7000"/>
</svg>
