<svg width="533" height="450" viewBox="0 0 533 450" fill="none" xmlns="http://www.w3.org/2000/svg">
<path fill-rule="evenodd" clip-rule="evenodd" d="M234.452 1.11698C210.26 4.96659 182.024 18.1079 158.439 36.494C140.402 50.5554 135.798 55.6669 120.571 78.5468C110.11 94.2645 99.4189 119.437 98.773 129.876L98.373 136.317L266.892 136.796L435.411 137.275V133.057C435.411 127.273 428.544 107.687 421.76 94.1236C415.158 80.9223 399.7 59.6311 389.008 49.0156C368.929 29.0783 332.793 8.64533 307.731 3.05682C294.73 0.15928 248.213 -1.07261 234.452 1.11698ZM279.093 62.2282C289.382 69.4354 288.47 90.3848 277.624 95.994C266.208 101.9 254.208 98.3864 248.574 87.491C243.547 77.7693 245.988 68.0458 254.83 62.5587C261.167 58.6264 273.708 58.4555 279.093 62.2282ZM182.249 90.6195C188.808 96.5554 185.056 109.674 176.631 110.268C168.011 110.876 163.317 106.908 163.212 98.9272C163.082 89.0778 174.867 83.9362 182.249 90.6195ZM373.448 91.2674C377.96 95.7799 378.214 100.255 374.28 105.871C368.42 114.241 354.672 109.605 354.672 99.2615C354.672 88.7173 366.054 83.8724 373.448 91.2674ZM95.5566 164.504V175.771H266.422H437.288V164.504V153.237H266.422H95.5566V164.504ZM97.4342 193.414C97.4342 193.821 99.1579 199.736 101.265 206.559L105.095 218.962H266.15H427.205L431.327 207.225C433.593 200.771 435.441 194.854 435.429 194.08C435.42 193.307 359.366 192.672 266.422 192.672C173.479 192.672 97.4342 193.006 97.4342 193.414ZM114.333 235.716C114.333 236.67 117.08 240.976 120.435 245.288C126.483 253.054 126.665 253.131 140.62 253.935C170.315 255.644 208.15 270.053 230.743 288.255C237.454 293.661 243.622 299.297 244.45 300.776C245.609 302.846 250.528 303.466 265.807 303.466H285.659L297.285 292.589C310.269 280.441 331.211 268.823 353.419 261.445C368.227 256.525 399.991 251.539 403.339 253.608C405.4 254.883 412.432 247.815 417.297 239.581L420.602 233.985H267.468C175.235 233.985 114.333 234.674 114.333 235.716ZM83.0627 272.684C76.658 280.866 44.8601 329.111 44.8601 330.648C44.8601 332.191 67.7148 331.774 96.5517 329.707C128.308 327.429 166.836 329.776 188.226 335.29C207.436 340.242 236.384 354.034 249.993 364.719L260.789 373.196V365.854C260.789 337.618 234.788 305.8 196.011 286.582C174.029 275.688 142.687 268.46 109.091 266.539L88.782 265.377L83.0627 272.684ZM410.062 267.889C374.271 270.952 340.798 281.523 319.417 296.514C294.523 313.97 282.292 328.931 275.843 349.813C272.177 361.681 270.878 372.946 273.176 372.946C273.792 372.946 278.227 369.439 283.034 365.153C294.101 355.281 324.759 340.63 345.357 335.37C374.727 327.87 415.215 326.973 480.005 332.383C485.217 332.818 487.985 332.289 487.985 330.858C487.985 328.614 452.779 275.369 447.268 269.279C443.92 265.58 439.141 265.401 410.062 267.889ZM51.8281 342.649C36.6398 343.885 33.6806 345.623 33.6224 353.34C33.6074 355.465 34.7922 358.845 36.2567 360.851C38.7859 364.314 42.468 364.549 109.954 365.564C189.951 366.766 190.699 366.875 220.993 381.56C233.975 387.855 241.288 392.902 249.465 401.206C264.353 416.329 268.473 416.361 283 401.464C295.158 388.998 315.818 377.464 337.824 370.856C350.922 366.922 356.499 366.571 421.604 365.568C486.712 364.567 491.618 364.258 495.302 360.919C500.165 356.513 500.313 352.142 495.79 346.555L492.331 342.283L426.787 342.121L361.244 341.962L342.467 347.098C318.486 353.657 296.51 364.498 282.707 376.578C276.492 382.016 270.014 386.091 267.579 386.091C265.238 386.091 257.049 381.318 249.381 375.483C231.693 362.023 214.109 353.631 190.361 347.314C172.439 342.546 169.254 342.303 119.027 341.89C90.1114 341.652 59.8719 341.994 51.8281 342.649ZM4.59586 382.999C-1.12533 388.72 -1.47644 393.492 3.38291 399.497L6.96921 403.931L85.5299 405.009C159.582 406.025 164.898 406.327 178.173 410.273C194.999 415.275 212.357 423.81 231.851 436.662C260.746 455.717 272.406 454.847 309.663 430.871C326.346 420.133 334.54 416.325 354.672 409.953C365.917 406.395 373.105 406.004 446.014 405.011C520.355 403.997 525.391 403.715 529.1 400.354C534.716 395.265 534.209 387.276 527.956 382.358C524.432 379.586 521.683 378.783 519.037 379.755C516.932 380.527 481.835 381.688 441.044 382.334L366.877 383.509L346.222 389.186C322.427 395.725 314.411 399.494 293.648 413.895C280.206 423.219 277.442 424.388 267.361 425.019C255.444 425.765 255.943 425.97 237.721 412.902C223.914 403.003 204.351 394.069 184.566 388.626C166.222 383.583 164.96 383.496 91.8013 382.336C51.0094 381.688 15.781 380.493 13.5147 379.678C10.3715 378.548 8.26103 379.333 4.59586 382.999Z" fill="black"/>
</svg>
