<svg width="597" height="504" viewBox="0 0 597 504" fill="none" xmlns="http://www.w3.org/2000/svg">
<path fill-rule="evenodd" clip-rule="evenodd" d="M262.604 1.25102C235.507 5.56258 203.881 20.2808 177.464 40.8733C157.261 56.622 152.104 62.347 135.048 87.9724C123.332 105.576 111.357 133.77 110.633 145.461L110.185 152.675L298.939 153.212L487.693 153.748V149.024C487.693 142.546 480.002 120.61 472.403 105.418C465.008 90.6329 447.694 66.7868 435.719 54.8974C413.228 32.5677 372.754 9.68277 344.681 3.42364C330.12 0.178393 278.017 -1.20132 262.604 1.25102ZM312.605 69.6955C324.13 77.7676 323.108 101.231 310.96 107.513C298.173 114.128 284.732 110.193 278.421 97.9899C272.791 87.1017 275.525 76.2113 285.429 70.0657C292.527 65.6616 306.573 65.4702 312.605 69.6955ZM204.133 101.494C211.479 108.142 207.277 122.835 197.84 123.5C188.185 124.181 182.927 119.737 182.81 110.798C182.664 99.7671 195.864 94.0086 204.133 101.494ZM418.29 102.219C423.344 107.273 423.628 112.285 419.222 118.576C412.658 127.95 397.259 122.757 397.259 111.173C397.259 99.3633 410.008 93.9371 418.29 102.219ZM107.031 184.244V196.864H298.413H489.796V184.244V171.625H298.413H107.031V184.244ZM109.134 216.623C109.134 217.08 111.064 223.705 113.424 231.346L117.714 245.237H298.108H478.502L483.118 232.092C485.657 224.864 487.726 218.236 487.714 217.37C487.703 216.503 402.517 215.792 298.413 215.792C194.309 215.792 109.134 216.167 109.134 216.623ZM128.062 264.002C128.062 265.07 131.138 269.893 134.897 274.722C141.671 283.421 141.875 283.507 157.505 284.407C190.766 286.321 233.143 302.459 258.45 322.845C265.966 328.901 272.875 335.212 273.803 336.87C275.1 339.187 280.61 339.881 297.723 339.881H319.959L332.982 327.7C347.525 314.094 370.981 301.081 395.856 292.818C412.441 287.308 448.02 281.724 451.769 284.041C454.079 285.469 461.955 277.553 467.404 268.33L471.105 262.063H299.585C196.276 262.063 128.062 262.835 128.062 264.002ZM93.0365 305.406C85.8628 314.569 50.2467 368.605 50.2467 370.325C50.2467 372.054 75.8457 371.587 108.145 369.272C143.715 366.72 186.869 369.349 210.827 375.524C232.344 381.071 264.768 396.519 280.011 408.486L292.104 417.98V409.756C292.104 378.132 262.98 342.496 219.547 320.972C194.926 308.771 159.821 300.676 122.19 298.524L99.4425 297.222L93.0365 305.406ZM459.301 300.036C419.211 303.467 381.719 315.305 357.771 332.095C329.888 351.647 316.189 368.403 308.964 391.791C304.859 405.083 303.404 417.7 305.978 417.7C306.668 417.7 311.635 413.771 317.019 408.972C329.415 397.915 363.754 381.506 386.826 375.615C419.722 367.215 465.072 366.209 537.641 372.269C543.48 372.757 546.579 372.163 546.579 370.561C546.579 368.048 507.146 308.413 500.974 301.593C497.224 297.449 491.871 297.249 459.301 300.036ZM58.0513 383.767C41.0393 385.151 37.7248 387.098 37.6596 395.74C37.6428 398.121 38.9698 401.907 40.6103 404.153C43.4431 408.031 47.5673 408.294 123.157 409.432C212.76 410.778 213.597 410.9 247.528 427.347C262.069 434.397 270.261 440.051 279.42 449.351C296.095 466.288 300.71 466.324 316.981 449.639C330.599 435.678 353.74 422.76 378.388 415.359C393.059 410.953 399.305 410.56 472.228 409.436C545.154 408.315 550.649 407.968 554.775 404.229C560.222 399.295 560.388 394.399 555.322 388.142L551.448 383.357L478.033 383.176L404.62 382.997L383.589 388.749C356.728 396.096 332.113 408.238 316.653 421.767C309.692 427.858 302.436 432.422 299.709 432.422C297.086 432.422 287.914 427.076 279.325 420.541C259.514 405.466 239.818 396.066 213.218 388.991C193.144 383.651 189.577 383.38 133.319 382.917C100.932 382.65 67.061 383.033 58.0513 383.767ZM5.14771 428.958C-1.26045 435.367 -1.65372 440.711 3.78911 447.437L7.80604 452.403L95.8 453.61C178.744 454.748 184.698 455.086 199.567 459.505C218.413 465.108 237.856 474.667 259.691 489.062C292.055 510.403 305.116 509.429 346.845 482.575C365.532 470.549 374.71 466.284 397.259 459.148C409.855 455.162 417.905 454.725 499.569 453.612C582.837 452.476 588.478 452.161 592.631 448.396C598.922 442.696 598.354 433.749 591.35 428.241C587.403 425.137 584.324 424.237 581.361 425.326C579.003 426.191 539.692 427.49 494.002 428.214L410.929 429.53L387.795 435.888C361.142 443.212 352.164 447.433 328.908 463.562C313.852 474.005 310.756 475.315 299.465 476.022C286.116 476.857 286.676 477.086 266.265 462.45C250.801 451.364 228.889 441.357 206.728 435.262C186.181 429.612 184.768 429.516 102.824 428.216C57.1344 427.49 17.6759 426.153 15.1375 425.24C11.6169 423.974 9.25297 424.853 5.14771 428.958Z" fill="white"/>
</svg>
