<svg width="20" height="16" viewBox="0 0 20 16" fill="none" xmlns="http://www.w3.org/2000/svg">
<path d="M17.2559 10.253C17.1599 9.586 16.6449 9.066 15.9819 8.911C13.4049 8.307 12.7589 6.823 12.6499 5.177C12.1929 5.092 11.3799 5 9.99991 5C8.61991 5 7.80691 5.092 7.34991 5.177C7.24091 6.823 6.59491 8.307 4.01791 8.911C3.35491 9.067 2.83991 9.586 2.74391 10.253L2.24691 13.695C2.07191 14.907 2.96191 16 4.19991 16H15.7999C17.0369 16 17.9279 14.907 17.7529 13.695L17.2559 10.253ZM9.99991 13.492C8.60491 13.492 7.47391 12.372 7.47391 10.992C7.47391 9.612 8.60491 8.492 9.99991 8.492C11.3949 8.492 12.5259 9.612 12.5259 10.992C12.5259 12.372 11.3939 13.492 9.99991 13.492ZM19.9499 4C19.9259 2.5 16.1079 0.001 9.99991 0C3.89091 0.001 0.0729066 2.5 0.0499066 4C0.0269066 5.5 0.0709066 7.452 2.58491 7.127C5.52591 6.746 5.34491 5.719 5.34491 4.251C5.34491 3.227 7.73691 2.98 9.99991 2.98C12.2629 2.98 14.6539 3.227 14.6549 4.251C14.6549 5.719 14.4739 6.746 17.4149 7.127C19.9279 7.452 19.9729 5.5 19.9499 4Z" fill="white"/>
</svg>
