<svg width="105" height="88" viewBox="0 0 105 88" fill="none" xmlns="http://www.w3.org/2000/svg">
<path d="M96.456 0H8.09992C5.9696 0 3.92654 0.842854 2.42018 2.34315C0.913815 3.84344 0.0675507 5.87827 0.0675507 8V80C0.0675507 82.1217 0.913815 84.1566 2.42018 85.6569C3.92654 87.1571 5.9696 88 8.09992 88H14.822C15.5821 88.0002 16.3267 87.7857 16.9692 87.3812C17.6117 86.9767 18.1257 86.3989 18.4516 85.715C20.4046 81.6084 23.488 78.1383 27.3432 75.7084C31.1984 73.2784 35.667 71.9885 40.2294 71.9885C44.7918 71.9885 49.2604 73.2784 53.1156 75.7084C56.9708 78.1383 60.0542 81.6084 62.0072 85.715C62.333 86.3989 62.8471 86.9767 63.4896 87.3812C64.1321 87.7857 64.8767 88.0002 65.6368 88H96.456C98.5863 88 100.629 87.1571 102.136 85.6569C103.642 84.1566 104.488 82.1217 104.488 80V8C104.488 5.87827 103.642 3.84344 102.136 2.34315C100.629 0.842854 98.5863 0 96.456 0ZM40.2294 64C37.0521 64 33.9461 63.0616 31.3043 61.3035C28.6625 59.5454 26.6034 57.0466 25.3875 54.1229C24.1716 51.1993 23.8535 47.9823 24.4733 44.8786C25.0932 41.7749 26.6232 38.9239 28.8699 36.6863C31.1166 34.4487 33.9791 32.9248 37.0953 32.3074C40.2116 31.6901 43.4417 32.0069 46.3771 33.2179C49.3125 34.4289 51.8215 36.4797 53.5867 39.1109C55.3519 41.7421 56.2941 44.8355 56.2941 48C56.2941 52.2435 54.6016 56.3131 51.5889 59.3137C48.5762 62.3143 44.49 64 40.2294 64ZM96.456 80H68.0565C66.3057 76.9933 64.0742 74.2912 61.4499 72H84.4074C85.4726 72 86.4941 71.5786 87.2473 70.8284C88.0005 70.0783 88.4236 69.0609 88.4236 68V20C88.4236 18.9391 88.0005 17.9217 87.2473 17.1716C86.4941 16.4214 85.4726 16 84.4074 16H20.1485C19.0833 16 18.0618 16.4214 17.3086 17.1716C16.5554 17.9217 16.1323 18.9391 16.1323 20V68C16.1318 68.8871 16.4275 69.7492 16.9728 70.4507C17.5181 71.1522 18.282 71.6532 19.1444 71.875C16.4597 74.1917 14.1811 76.9376 12.4023 80H8.09992V8H96.456V80Z" fill="#EC7000"/>
</svg>
